G75*
%MOIN*%
%OFA0B0*%
%FSLAX25Y25*%
%IPPOS*%
%LPD*%
%AMOC8*
5,1,8,0,0,1.08239X$1,22.5*
%
%ADD10C,0.00000*%
%ADD11C,0.00300*%
%ADD12R,0.07874X0.07874*%
%ADD13C,0.00600*%
%ADD14C,0.02400*%
%ADD15C,0.07874*%
%ADD16C,0.00400*%
%ADD17C,0.00500*%
%ADD18C,0.04800*%
D10*
X0002200Y0002200D02*
X0002200Y0087161D01*
X0170901Y0087161D01*
X0170901Y0002200D01*
X0002200Y0002200D01*
X0012200Y0005731D02*
X0012200Y0013669D01*
X0008231Y0009700D02*
X0016169Y0009700D01*
X0028200Y0014700D02*
X0036200Y0014700D01*
X0032200Y0010700D02*
X0032200Y0018700D01*
X0016169Y0024700D02*
X0008231Y0024700D01*
X0012200Y0020731D02*
X0012200Y0028669D01*
X0012200Y0030700D02*
X0012200Y0038700D01*
X0008200Y0034700D02*
X0016200Y0034700D01*
X0024700Y0041767D02*
X0024700Y0047633D01*
X0021767Y0044700D02*
X0027633Y0044700D01*
X0016200Y0052200D02*
X0008200Y0052200D01*
X0012200Y0048200D02*
X0012200Y0056200D01*
X0031767Y0059700D02*
X0037633Y0059700D01*
X0041767Y0059700D02*
X0047633Y0059700D01*
X0044700Y0056767D02*
X0044700Y0062633D01*
X0034700Y0062633D02*
X0034700Y0056767D01*
X0012200Y0070700D02*
X0012200Y0078700D01*
X0008200Y0074700D02*
X0016200Y0074700D01*
X0068200Y0047200D02*
X0076200Y0047200D01*
X0072200Y0043200D02*
X0072200Y0051200D01*
X0113200Y0072200D02*
X0121200Y0072200D01*
X0117200Y0068200D02*
X0117200Y0076200D01*
X0128200Y0072200D02*
X0136200Y0072200D01*
X0132200Y0068200D02*
X0132200Y0076200D01*
X0143200Y0072200D02*
X0151200Y0072200D01*
X0147200Y0068200D02*
X0147200Y0076200D01*
X0132200Y0046200D02*
X0132200Y0038200D01*
X0128200Y0042200D02*
X0136200Y0042200D01*
X0132200Y0018700D02*
X0132200Y0010700D01*
X0128200Y0014700D02*
X0136200Y0014700D01*
X0121200Y0014700D02*
X0113200Y0014700D01*
X0117200Y0010700D02*
X0117200Y0018700D01*
X0106200Y0014700D02*
X0098200Y0014700D01*
X0102200Y0010700D02*
X0102200Y0018700D01*
D11*
X0101417Y0008553D02*
X0100800Y0008553D01*
X0101417Y0008553D02*
X0101417Y0004850D01*
X0100800Y0004850D02*
X0102035Y0004850D01*
X0103256Y0004850D02*
X0105107Y0004850D01*
X0105724Y0005467D01*
X0105107Y0006084D01*
X0103873Y0006084D01*
X0103256Y0006702D01*
X0103873Y0007319D01*
X0105724Y0007319D01*
X0099586Y0006702D02*
X0099586Y0004850D01*
X0097734Y0004850D01*
X0097117Y0005467D01*
X0097734Y0006084D01*
X0099586Y0006084D01*
X0099586Y0006702D02*
X0098969Y0007319D01*
X0097734Y0007319D01*
X0095903Y0007319D02*
X0094051Y0007319D01*
X0093434Y0006702D01*
X0093434Y0005467D01*
X0094051Y0004850D01*
X0095903Y0004850D01*
X0095903Y0008553D01*
X0092220Y0006702D02*
X0092220Y0006084D01*
X0089751Y0006084D01*
X0089751Y0005467D02*
X0089751Y0006702D01*
X0090368Y0007319D01*
X0091602Y0007319D01*
X0092220Y0006702D01*
X0090368Y0004850D02*
X0089751Y0005467D01*
X0090368Y0004850D02*
X0091602Y0004850D01*
X0088536Y0006702D02*
X0087919Y0006084D01*
X0086068Y0006084D01*
X0086068Y0004850D02*
X0086068Y0008553D01*
X0087919Y0008553D01*
X0088536Y0007936D01*
X0088536Y0006702D01*
X0081167Y0007319D02*
X0080550Y0007319D01*
X0079315Y0006084D01*
X0078101Y0006084D02*
X0078101Y0006702D01*
X0077484Y0007319D01*
X0076249Y0007319D01*
X0075632Y0006702D01*
X0075632Y0005467D01*
X0076249Y0004850D01*
X0077484Y0004850D01*
X0078101Y0006084D02*
X0075632Y0006084D01*
X0074418Y0004850D02*
X0072566Y0004850D01*
X0071949Y0005467D01*
X0071949Y0006702D01*
X0072566Y0007319D01*
X0074418Y0007319D01*
X0074418Y0008553D02*
X0074418Y0004850D01*
X0070734Y0005467D02*
X0070734Y0006702D01*
X0070117Y0007319D01*
X0068883Y0007319D01*
X0068266Y0006702D01*
X0068266Y0005467D01*
X0068883Y0004850D01*
X0070117Y0004850D01*
X0070734Y0005467D01*
X0067051Y0004850D02*
X0065200Y0004850D01*
X0064583Y0005467D01*
X0064583Y0006702D01*
X0065200Y0007319D01*
X0067051Y0007319D01*
X0063368Y0006702D02*
X0063368Y0005467D01*
X0062751Y0004850D01*
X0061517Y0004850D01*
X0060899Y0005467D01*
X0060899Y0006702D01*
X0061517Y0007319D01*
X0062751Y0007319D01*
X0063368Y0006702D01*
X0059685Y0006702D02*
X0059685Y0004850D01*
X0059685Y0006702D02*
X0059068Y0007319D01*
X0057216Y0007319D01*
X0057216Y0004850D01*
X0056002Y0006084D02*
X0053533Y0006084D01*
X0053533Y0005467D02*
X0053533Y0006702D01*
X0054150Y0007319D01*
X0055385Y0007319D01*
X0056002Y0006702D01*
X0056002Y0006084D01*
X0055385Y0004850D02*
X0054150Y0004850D01*
X0053533Y0005467D01*
X0052319Y0004850D02*
X0049850Y0008553D01*
X0052319Y0008553D02*
X0049850Y0004850D01*
X0079315Y0004850D02*
X0079315Y0007319D01*
X0144850Y0007936D02*
X0144850Y0005467D01*
X0147319Y0007936D01*
X0147319Y0005467D01*
X0146702Y0004850D01*
X0145467Y0004850D01*
X0144850Y0005467D01*
X0144850Y0007936D02*
X0145467Y0008553D01*
X0146702Y0008553D01*
X0147319Y0007936D01*
X0148533Y0007319D02*
X0149768Y0008553D01*
X0149768Y0004850D01*
X0151002Y0004850D02*
X0148533Y0004850D01*
X0152216Y0004850D02*
X0152833Y0004850D01*
X0152833Y0005467D01*
X0152216Y0005467D01*
X0152216Y0004850D01*
X0154058Y0004850D02*
X0156527Y0007319D01*
X0156527Y0007936D01*
X0155909Y0008553D01*
X0154675Y0008553D01*
X0154058Y0007936D01*
X0157741Y0007936D02*
X0157741Y0005467D01*
X0160210Y0007936D01*
X0160210Y0005467D01*
X0159593Y0004850D01*
X0158358Y0004850D01*
X0157741Y0005467D01*
X0156527Y0004850D02*
X0154058Y0004850D01*
X0157741Y0007936D02*
X0158358Y0008553D01*
X0159593Y0008553D01*
X0160210Y0007936D01*
X0161424Y0007319D02*
X0162659Y0008553D01*
X0162659Y0004850D01*
X0163893Y0004850D02*
X0161424Y0004850D01*
X0165107Y0004850D02*
X0165107Y0005467D01*
X0167576Y0007936D01*
X0167576Y0008553D01*
X0165107Y0008553D01*
X0164833Y0079850D02*
X0164216Y0079850D01*
X0164216Y0080467D01*
X0164833Y0080467D01*
X0164833Y0079850D01*
X0166057Y0080467D02*
X0168526Y0082936D01*
X0168526Y0080467D01*
X0167909Y0079850D01*
X0166675Y0079850D01*
X0166057Y0080467D01*
X0166057Y0082936D01*
X0166675Y0083553D01*
X0167909Y0083553D01*
X0168526Y0082936D01*
X0163002Y0079850D02*
X0160533Y0079850D01*
X0161767Y0079850D02*
X0161767Y0083553D01*
X0160533Y0082319D01*
X0159318Y0082319D02*
X0158084Y0079850D01*
X0156850Y0082319D01*
X0151952Y0081702D02*
X0151952Y0079850D01*
X0151952Y0081702D02*
X0151335Y0082319D01*
X0150100Y0082319D01*
X0149483Y0081702D01*
X0148269Y0082319D02*
X0146417Y0082319D01*
X0145800Y0081702D01*
X0145800Y0080467D01*
X0146417Y0079850D01*
X0148269Y0079850D01*
X0149483Y0079850D02*
X0149483Y0083553D01*
X0144579Y0082319D02*
X0143345Y0082319D01*
X0143962Y0082936D02*
X0143962Y0080467D01*
X0144579Y0079850D01*
X0142124Y0079850D02*
X0140889Y0079850D01*
X0141506Y0079850D02*
X0141506Y0082319D01*
X0140889Y0082319D01*
X0139675Y0082319D02*
X0139675Y0080467D01*
X0139058Y0079850D01*
X0138441Y0080467D01*
X0137823Y0079850D01*
X0137206Y0080467D01*
X0137206Y0082319D01*
X0135992Y0082936D02*
X0135375Y0083553D01*
X0134140Y0083553D01*
X0133523Y0082936D01*
X0133523Y0082319D01*
X0134140Y0081702D01*
X0135375Y0081702D01*
X0135992Y0081084D01*
X0135992Y0080467D01*
X0135375Y0079850D01*
X0134140Y0079850D01*
X0133523Y0080467D01*
X0128625Y0079850D02*
X0128625Y0083553D01*
X0128625Y0082319D02*
X0126774Y0082319D01*
X0126157Y0081702D01*
X0126157Y0080467D01*
X0126774Y0079850D01*
X0128625Y0079850D01*
X0124942Y0081084D02*
X0124942Y0081702D01*
X0124325Y0082319D01*
X0123091Y0082319D01*
X0122474Y0081702D01*
X0122474Y0080467D01*
X0123091Y0079850D01*
X0124325Y0079850D01*
X0124942Y0081084D02*
X0122474Y0081084D01*
X0121256Y0079850D02*
X0119404Y0081084D01*
X0121256Y0082319D01*
X0119404Y0083553D02*
X0119404Y0079850D01*
X0118190Y0079850D02*
X0116338Y0079850D01*
X0115721Y0080467D01*
X0115721Y0081702D01*
X0116338Y0082319D01*
X0118190Y0082319D01*
X0113883Y0082319D02*
X0113883Y0079850D01*
X0113266Y0079850D02*
X0114500Y0079850D01*
X0112051Y0079850D02*
X0112051Y0083553D01*
X0113266Y0082319D02*
X0113883Y0082319D01*
X0113883Y0083553D02*
X0113883Y0084170D01*
X0109583Y0083553D02*
X0109583Y0079850D01*
X0110817Y0081084D01*
X0112051Y0079850D01*
X0104685Y0080467D02*
X0104685Y0081702D01*
X0103451Y0081702D01*
X0104685Y0082936D02*
X0104068Y0083553D01*
X0102833Y0083553D01*
X0102216Y0082936D01*
X0102216Y0080467D01*
X0102833Y0079850D01*
X0104068Y0079850D01*
X0104685Y0080467D01*
X0101002Y0083553D02*
X0098533Y0083553D01*
X0097319Y0083553D02*
X0094850Y0083553D01*
X0096084Y0083553D02*
X0096084Y0079850D01*
X0099768Y0079850D02*
X0099768Y0083553D01*
X0141506Y0083553D02*
X0141506Y0084170D01*
D12*
X0032200Y0019700D03*
X0012200Y0009700D03*
X0012200Y0047200D03*
X0012200Y0074700D03*
D13*
X0011806Y0080000D02*
X0010338Y0080000D01*
X0009604Y0080734D01*
X0010338Y0082202D02*
X0012540Y0082202D01*
X0012540Y0080734D02*
X0012540Y0083670D01*
X0011806Y0084404D01*
X0010338Y0084404D01*
X0009604Y0083670D01*
X0009604Y0082936D01*
X0010338Y0082202D01*
X0007936Y0082202D02*
X0005000Y0082202D01*
X0006468Y0083670D02*
X0006468Y0080734D01*
X0011806Y0080000D02*
X0012540Y0080734D01*
X0014208Y0081468D02*
X0015676Y0080000D01*
X0017144Y0081468D01*
X0017144Y0084404D01*
X0014208Y0084404D02*
X0014208Y0081468D01*
X0031700Y0070763D02*
X0037700Y0070763D01*
X0037760Y0070761D01*
X0037821Y0070756D01*
X0037880Y0070747D01*
X0037939Y0070734D01*
X0037998Y0070718D01*
X0038055Y0070698D01*
X0038110Y0070675D01*
X0038165Y0070648D01*
X0038217Y0070619D01*
X0038268Y0070586D01*
X0038317Y0070550D01*
X0038363Y0070512D01*
X0038407Y0070470D01*
X0038449Y0070426D01*
X0038487Y0070380D01*
X0038523Y0070331D01*
X0038556Y0070280D01*
X0038585Y0070228D01*
X0038612Y0070173D01*
X0038635Y0070118D01*
X0038655Y0070061D01*
X0038671Y0070002D01*
X0038684Y0069943D01*
X0038693Y0069884D01*
X0038698Y0069823D01*
X0038700Y0069763D01*
X0038700Y0065763D01*
X0038200Y0065263D01*
X0038200Y0054137D01*
X0038700Y0053637D01*
X0038700Y0049637D01*
X0038698Y0049577D01*
X0038693Y0049516D01*
X0038684Y0049457D01*
X0038671Y0049398D01*
X0038655Y0049339D01*
X0038635Y0049282D01*
X0038612Y0049227D01*
X0038585Y0049172D01*
X0038556Y0049120D01*
X0038523Y0049069D01*
X0038487Y0049020D01*
X0038449Y0048974D01*
X0038407Y0048930D01*
X0038363Y0048888D01*
X0038317Y0048850D01*
X0038268Y0048814D01*
X0038217Y0048781D01*
X0038165Y0048752D01*
X0038110Y0048725D01*
X0038055Y0048702D01*
X0037998Y0048682D01*
X0037939Y0048666D01*
X0037880Y0048653D01*
X0037821Y0048644D01*
X0037760Y0048639D01*
X0037700Y0048637D01*
X0031700Y0048637D01*
X0031640Y0048639D01*
X0031579Y0048644D01*
X0031520Y0048653D01*
X0031461Y0048666D01*
X0031402Y0048682D01*
X0031345Y0048702D01*
X0031290Y0048725D01*
X0031235Y0048752D01*
X0031183Y0048781D01*
X0031132Y0048814D01*
X0031083Y0048850D01*
X0031037Y0048888D01*
X0030993Y0048930D01*
X0030951Y0048974D01*
X0030913Y0049020D01*
X0030877Y0049069D01*
X0030844Y0049120D01*
X0030815Y0049172D01*
X0030788Y0049227D01*
X0030765Y0049282D01*
X0030745Y0049339D01*
X0030729Y0049398D01*
X0030716Y0049457D01*
X0030707Y0049516D01*
X0030702Y0049577D01*
X0030700Y0049637D01*
X0030700Y0053637D01*
X0031200Y0054137D01*
X0031200Y0065263D01*
X0030700Y0065763D01*
X0030700Y0069763D01*
X0030702Y0069823D01*
X0030707Y0069884D01*
X0030716Y0069943D01*
X0030729Y0070002D01*
X0030745Y0070061D01*
X0030765Y0070118D01*
X0030788Y0070173D01*
X0030815Y0070228D01*
X0030844Y0070280D01*
X0030877Y0070331D01*
X0030913Y0070380D01*
X0030951Y0070426D01*
X0030993Y0070470D01*
X0031037Y0070512D01*
X0031083Y0070550D01*
X0031132Y0070586D01*
X0031183Y0070619D01*
X0031235Y0070648D01*
X0031290Y0070675D01*
X0031345Y0070698D01*
X0031402Y0070718D01*
X0031461Y0070734D01*
X0031520Y0070747D01*
X0031579Y0070756D01*
X0031640Y0070761D01*
X0031700Y0070763D01*
X0032496Y0066376D02*
X0033230Y0066376D01*
X0036166Y0063441D01*
X0036900Y0063441D01*
X0036900Y0061806D02*
X0035432Y0059604D01*
X0033964Y0061806D01*
X0032496Y0063441D02*
X0032496Y0066376D01*
X0040700Y0065763D02*
X0040700Y0069763D01*
X0040702Y0069823D01*
X0040707Y0069884D01*
X0040716Y0069943D01*
X0040729Y0070002D01*
X0040745Y0070061D01*
X0040765Y0070118D01*
X0040788Y0070173D01*
X0040815Y0070228D01*
X0040844Y0070280D01*
X0040877Y0070331D01*
X0040913Y0070380D01*
X0040951Y0070426D01*
X0040993Y0070470D01*
X0041037Y0070512D01*
X0041083Y0070550D01*
X0041132Y0070586D01*
X0041183Y0070619D01*
X0041235Y0070648D01*
X0041290Y0070675D01*
X0041345Y0070698D01*
X0041402Y0070718D01*
X0041461Y0070734D01*
X0041520Y0070747D01*
X0041579Y0070756D01*
X0041640Y0070761D01*
X0041700Y0070763D01*
X0047700Y0070763D01*
X0047760Y0070761D01*
X0047821Y0070756D01*
X0047880Y0070747D01*
X0047939Y0070734D01*
X0047998Y0070718D01*
X0048055Y0070698D01*
X0048110Y0070675D01*
X0048165Y0070648D01*
X0048217Y0070619D01*
X0048268Y0070586D01*
X0048317Y0070550D01*
X0048363Y0070512D01*
X0048407Y0070470D01*
X0048449Y0070426D01*
X0048487Y0070380D01*
X0048523Y0070331D01*
X0048556Y0070280D01*
X0048585Y0070228D01*
X0048612Y0070173D01*
X0048635Y0070118D01*
X0048655Y0070061D01*
X0048671Y0070002D01*
X0048684Y0069943D01*
X0048693Y0069884D01*
X0048698Y0069823D01*
X0048700Y0069763D01*
X0048700Y0065763D01*
X0048200Y0065263D01*
X0048200Y0054137D01*
X0048700Y0053637D01*
X0048700Y0049637D01*
X0048698Y0049577D01*
X0048693Y0049516D01*
X0048684Y0049457D01*
X0048671Y0049398D01*
X0048655Y0049339D01*
X0048635Y0049282D01*
X0048612Y0049227D01*
X0048585Y0049172D01*
X0048556Y0049120D01*
X0048523Y0049069D01*
X0048487Y0049020D01*
X0048449Y0048974D01*
X0048407Y0048930D01*
X0048363Y0048888D01*
X0048317Y0048850D01*
X0048268Y0048814D01*
X0048217Y0048781D01*
X0048165Y0048752D01*
X0048110Y0048725D01*
X0048055Y0048702D01*
X0047998Y0048682D01*
X0047939Y0048666D01*
X0047880Y0048653D01*
X0047821Y0048644D01*
X0047760Y0048639D01*
X0047700Y0048637D01*
X0041700Y0048637D01*
X0041640Y0048639D01*
X0041579Y0048644D01*
X0041520Y0048653D01*
X0041461Y0048666D01*
X0041402Y0048682D01*
X0041345Y0048702D01*
X0041290Y0048725D01*
X0041235Y0048752D01*
X0041183Y0048781D01*
X0041132Y0048814D01*
X0041083Y0048850D01*
X0041037Y0048888D01*
X0040993Y0048930D01*
X0040951Y0048974D01*
X0040913Y0049020D01*
X0040877Y0049069D01*
X0040844Y0049120D01*
X0040815Y0049172D01*
X0040788Y0049227D01*
X0040765Y0049282D01*
X0040745Y0049339D01*
X0040729Y0049398D01*
X0040716Y0049457D01*
X0040707Y0049516D01*
X0040702Y0049577D01*
X0040700Y0049637D01*
X0040700Y0053637D01*
X0041200Y0054137D01*
X0041200Y0065263D01*
X0040700Y0065763D01*
X0042496Y0064208D02*
X0046900Y0064208D01*
X0045432Y0064208D02*
X0043964Y0066410D01*
X0045432Y0064208D02*
X0046900Y0066410D01*
X0046166Y0062540D02*
X0043230Y0062540D01*
X0046166Y0059604D01*
X0046900Y0060338D01*
X0046900Y0061806D01*
X0046166Y0062540D01*
X0043230Y0062540D02*
X0042496Y0061806D01*
X0042496Y0060338D01*
X0043230Y0059604D01*
X0046166Y0059604D01*
X0046900Y0057936D02*
X0046900Y0055000D01*
X0043964Y0055000D02*
X0042496Y0056468D01*
X0046900Y0056468D01*
X0036900Y0057202D02*
X0032496Y0057202D01*
X0034698Y0055000D01*
X0034698Y0057936D01*
X0036900Y0059604D02*
X0032496Y0059604D01*
X0027700Y0055763D02*
X0021700Y0055763D01*
X0021640Y0055761D01*
X0021579Y0055756D01*
X0021520Y0055747D01*
X0021461Y0055734D01*
X0021402Y0055718D01*
X0021345Y0055698D01*
X0021290Y0055675D01*
X0021235Y0055648D01*
X0021183Y0055619D01*
X0021132Y0055586D01*
X0021083Y0055550D01*
X0021037Y0055512D01*
X0020993Y0055470D01*
X0020951Y0055426D01*
X0020913Y0055380D01*
X0020877Y0055331D01*
X0020844Y0055280D01*
X0020815Y0055228D01*
X0020788Y0055173D01*
X0020765Y0055118D01*
X0020745Y0055061D01*
X0020729Y0055002D01*
X0020716Y0054943D01*
X0020707Y0054884D01*
X0020702Y0054823D01*
X0020700Y0054763D01*
X0020700Y0050763D01*
X0021200Y0050263D01*
X0021200Y0039137D01*
X0020700Y0038637D01*
X0020700Y0034637D01*
X0020702Y0034577D01*
X0020707Y0034516D01*
X0020716Y0034457D01*
X0020729Y0034398D01*
X0020745Y0034339D01*
X0020765Y0034282D01*
X0020788Y0034227D01*
X0020815Y0034172D01*
X0020844Y0034120D01*
X0020877Y0034069D01*
X0020913Y0034020D01*
X0020951Y0033974D01*
X0020993Y0033930D01*
X0021037Y0033888D01*
X0021083Y0033850D01*
X0021132Y0033814D01*
X0021183Y0033781D01*
X0021235Y0033752D01*
X0021290Y0033725D01*
X0021345Y0033702D01*
X0021402Y0033682D01*
X0021461Y0033666D01*
X0021520Y0033653D01*
X0021579Y0033644D01*
X0021640Y0033639D01*
X0021700Y0033637D01*
X0027700Y0033637D01*
X0027760Y0033639D01*
X0027821Y0033644D01*
X0027880Y0033653D01*
X0027939Y0033666D01*
X0027998Y0033682D01*
X0028055Y0033702D01*
X0028110Y0033725D01*
X0028165Y0033752D01*
X0028217Y0033781D01*
X0028268Y0033814D01*
X0028317Y0033850D01*
X0028363Y0033888D01*
X0028407Y0033930D01*
X0028449Y0033974D01*
X0028487Y0034020D01*
X0028523Y0034069D01*
X0028556Y0034120D01*
X0028585Y0034172D01*
X0028612Y0034227D01*
X0028635Y0034282D01*
X0028655Y0034339D01*
X0028671Y0034398D01*
X0028684Y0034457D01*
X0028693Y0034516D01*
X0028698Y0034577D01*
X0028700Y0034637D01*
X0028700Y0038637D01*
X0028200Y0039137D01*
X0028200Y0050263D01*
X0028700Y0050763D01*
X0028700Y0054763D01*
X0028698Y0054823D01*
X0028693Y0054884D01*
X0028684Y0054943D01*
X0028671Y0055002D01*
X0028655Y0055061D01*
X0028635Y0055118D01*
X0028612Y0055173D01*
X0028585Y0055228D01*
X0028556Y0055280D01*
X0028523Y0055331D01*
X0028487Y0055380D01*
X0028449Y0055426D01*
X0028407Y0055470D01*
X0028363Y0055512D01*
X0028317Y0055550D01*
X0028268Y0055586D01*
X0028217Y0055619D01*
X0028165Y0055648D01*
X0028110Y0055675D01*
X0028055Y0055698D01*
X0027998Y0055718D01*
X0027939Y0055734D01*
X0027880Y0055747D01*
X0027821Y0055756D01*
X0027760Y0055761D01*
X0027700Y0055763D01*
X0026900Y0051410D02*
X0025432Y0049208D01*
X0023964Y0051410D01*
X0022496Y0049208D02*
X0026900Y0049208D01*
X0026166Y0047540D02*
X0023230Y0047540D01*
X0026166Y0044604D01*
X0026900Y0045338D01*
X0026900Y0046806D01*
X0026166Y0047540D01*
X0023230Y0047540D02*
X0022496Y0046806D01*
X0022496Y0045338D01*
X0023230Y0044604D01*
X0026166Y0044604D01*
X0026900Y0042936D02*
X0026900Y0040000D01*
X0026900Y0041468D02*
X0022496Y0041468D01*
X0023964Y0040000D01*
X0042496Y0023332D02*
X0042496Y0020396D01*
X0046900Y0020396D01*
X0044698Y0020396D02*
X0044698Y0021864D01*
X0038800Y0019200D02*
X0036300Y0019200D01*
X0037600Y0017900D02*
X0037600Y0020500D01*
X0043964Y0018728D02*
X0046900Y0018728D01*
X0046900Y0016526D01*
X0046166Y0015792D01*
X0043964Y0015792D01*
X0046900Y0014124D02*
X0046900Y0011188D01*
X0043964Y0011188D02*
X0042496Y0012656D01*
X0046900Y0012656D01*
X0046900Y0009620D02*
X0046900Y0008886D01*
X0046166Y0008886D01*
X0046166Y0009620D01*
X0046900Y0009620D01*
X0046166Y0007218D02*
X0043230Y0007218D01*
X0046166Y0004282D01*
X0046900Y0005016D01*
X0046900Y0006484D01*
X0046166Y0007218D01*
X0043230Y0007218D02*
X0042496Y0006484D01*
X0042496Y0005016D01*
X0043230Y0004282D01*
X0046166Y0004282D01*
X0060700Y0012200D02*
X0083700Y0012200D01*
X0083700Y0082200D01*
X0076200Y0082200D01*
X0076198Y0082074D01*
X0076192Y0081949D01*
X0076182Y0081824D01*
X0076168Y0081699D01*
X0076151Y0081574D01*
X0076129Y0081450D01*
X0076104Y0081327D01*
X0076074Y0081205D01*
X0076041Y0081084D01*
X0076004Y0080964D01*
X0075964Y0080845D01*
X0075919Y0080728D01*
X0075871Y0080611D01*
X0075819Y0080497D01*
X0075764Y0080384D01*
X0075705Y0080273D01*
X0075643Y0080164D01*
X0075577Y0080057D01*
X0075508Y0079952D01*
X0075436Y0079849D01*
X0075361Y0079748D01*
X0075282Y0079650D01*
X0075200Y0079555D01*
X0075116Y0079462D01*
X0075028Y0079372D01*
X0074938Y0079284D01*
X0074845Y0079200D01*
X0074750Y0079118D01*
X0074652Y0079039D01*
X0074551Y0078964D01*
X0074448Y0078892D01*
X0074343Y0078823D01*
X0074236Y0078757D01*
X0074127Y0078695D01*
X0074016Y0078636D01*
X0073903Y0078581D01*
X0073789Y0078529D01*
X0073672Y0078481D01*
X0073555Y0078436D01*
X0073436Y0078396D01*
X0073316Y0078359D01*
X0073195Y0078326D01*
X0073073Y0078296D01*
X0072950Y0078271D01*
X0072826Y0078249D01*
X0072701Y0078232D01*
X0072576Y0078218D01*
X0072451Y0078208D01*
X0072326Y0078202D01*
X0072200Y0078200D01*
X0072074Y0078202D01*
X0071949Y0078208D01*
X0071824Y0078218D01*
X0071699Y0078232D01*
X0071574Y0078249D01*
X0071450Y0078271D01*
X0071327Y0078296D01*
X0071205Y0078326D01*
X0071084Y0078359D01*
X0070964Y0078396D01*
X0070845Y0078436D01*
X0070728Y0078481D01*
X0070611Y0078529D01*
X0070497Y0078581D01*
X0070384Y0078636D01*
X0070273Y0078695D01*
X0070164Y0078757D01*
X0070057Y0078823D01*
X0069952Y0078892D01*
X0069849Y0078964D01*
X0069748Y0079039D01*
X0069650Y0079118D01*
X0069555Y0079200D01*
X0069462Y0079284D01*
X0069372Y0079372D01*
X0069284Y0079462D01*
X0069200Y0079555D01*
X0069118Y0079650D01*
X0069039Y0079748D01*
X0068964Y0079849D01*
X0068892Y0079952D01*
X0068823Y0080057D01*
X0068757Y0080164D01*
X0068695Y0080273D01*
X0068636Y0080384D01*
X0068581Y0080497D01*
X0068529Y0080611D01*
X0068481Y0080728D01*
X0068436Y0080845D01*
X0068396Y0080964D01*
X0068359Y0081084D01*
X0068326Y0081205D01*
X0068296Y0081327D01*
X0068271Y0081450D01*
X0068249Y0081574D01*
X0068232Y0081699D01*
X0068218Y0081824D01*
X0068208Y0081949D01*
X0068202Y0082074D01*
X0068200Y0082200D01*
X0060700Y0082200D01*
X0060700Y0012200D01*
X0022357Y0014700D02*
X0022360Y0014942D01*
X0022369Y0015183D01*
X0022384Y0015424D01*
X0022404Y0015665D01*
X0022431Y0015905D01*
X0022464Y0016144D01*
X0022502Y0016383D01*
X0022546Y0016620D01*
X0022596Y0016857D01*
X0022652Y0017092D01*
X0022714Y0017325D01*
X0022781Y0017557D01*
X0022854Y0017788D01*
X0022932Y0018016D01*
X0023017Y0018242D01*
X0023106Y0018467D01*
X0023201Y0018689D01*
X0023302Y0018908D01*
X0023408Y0019126D01*
X0023519Y0019340D01*
X0023636Y0019552D01*
X0023757Y0019760D01*
X0023884Y0019966D01*
X0024016Y0020168D01*
X0024153Y0020368D01*
X0024294Y0020563D01*
X0024440Y0020756D01*
X0024591Y0020944D01*
X0024747Y0021129D01*
X0024907Y0021310D01*
X0025071Y0021487D01*
X0025240Y0021660D01*
X0025413Y0021829D01*
X0025590Y0021993D01*
X0025771Y0022153D01*
X0025956Y0022309D01*
X0026144Y0022460D01*
X0026337Y0022606D01*
X0026532Y0022747D01*
X0026732Y0022884D01*
X0026934Y0023016D01*
X0027140Y0023143D01*
X0027348Y0023264D01*
X0027560Y0023381D01*
X0027774Y0023492D01*
X0027992Y0023598D01*
X0028211Y0023699D01*
X0028433Y0023794D01*
X0028658Y0023883D01*
X0028884Y0023968D01*
X0029112Y0024046D01*
X0029343Y0024119D01*
X0029575Y0024186D01*
X0029808Y0024248D01*
X0030043Y0024304D01*
X0030280Y0024354D01*
X0030517Y0024398D01*
X0030756Y0024436D01*
X0030995Y0024469D01*
X0031235Y0024496D01*
X0031476Y0024516D01*
X0031717Y0024531D01*
X0031958Y0024540D01*
X0032200Y0024543D01*
X0032442Y0024540D01*
X0032683Y0024531D01*
X0032924Y0024516D01*
X0033165Y0024496D01*
X0033405Y0024469D01*
X0033644Y0024436D01*
X0033883Y0024398D01*
X0034120Y0024354D01*
X0034357Y0024304D01*
X0034592Y0024248D01*
X0034825Y0024186D01*
X0035057Y0024119D01*
X0035288Y0024046D01*
X0035516Y0023968D01*
X0035742Y0023883D01*
X0035967Y0023794D01*
X0036189Y0023699D01*
X0036408Y0023598D01*
X0036626Y0023492D01*
X0036840Y0023381D01*
X0037052Y0023264D01*
X0037260Y0023143D01*
X0037466Y0023016D01*
X0037668Y0022884D01*
X0037868Y0022747D01*
X0038063Y0022606D01*
X0038256Y0022460D01*
X0038444Y0022309D01*
X0038629Y0022153D01*
X0038810Y0021993D01*
X0038987Y0021829D01*
X0039160Y0021660D01*
X0039329Y0021487D01*
X0039493Y0021310D01*
X0039653Y0021129D01*
X0039809Y0020944D01*
X0039960Y0020756D01*
X0040106Y0020563D01*
X0040247Y0020368D01*
X0040384Y0020168D01*
X0040516Y0019966D01*
X0040643Y0019760D01*
X0040764Y0019552D01*
X0040881Y0019340D01*
X0040992Y0019126D01*
X0041098Y0018908D01*
X0041199Y0018689D01*
X0041294Y0018467D01*
X0041383Y0018242D01*
X0041468Y0018016D01*
X0041546Y0017788D01*
X0041619Y0017557D01*
X0041686Y0017325D01*
X0041748Y0017092D01*
X0041804Y0016857D01*
X0041854Y0016620D01*
X0041898Y0016383D01*
X0041936Y0016144D01*
X0041969Y0015905D01*
X0041996Y0015665D01*
X0042016Y0015424D01*
X0042031Y0015183D01*
X0042040Y0014942D01*
X0042043Y0014700D01*
X0042040Y0014458D01*
X0042031Y0014217D01*
X0042016Y0013976D01*
X0041996Y0013735D01*
X0041969Y0013495D01*
X0041936Y0013256D01*
X0041898Y0013017D01*
X0041854Y0012780D01*
X0041804Y0012543D01*
X0041748Y0012308D01*
X0041686Y0012075D01*
X0041619Y0011843D01*
X0041546Y0011612D01*
X0041468Y0011384D01*
X0041383Y0011158D01*
X0041294Y0010933D01*
X0041199Y0010711D01*
X0041098Y0010492D01*
X0040992Y0010274D01*
X0040881Y0010060D01*
X0040764Y0009848D01*
X0040643Y0009640D01*
X0040516Y0009434D01*
X0040384Y0009232D01*
X0040247Y0009032D01*
X0040106Y0008837D01*
X0039960Y0008644D01*
X0039809Y0008456D01*
X0039653Y0008271D01*
X0039493Y0008090D01*
X0039329Y0007913D01*
X0039160Y0007740D01*
X0038987Y0007571D01*
X0038810Y0007407D01*
X0038629Y0007247D01*
X0038444Y0007091D01*
X0038256Y0006940D01*
X0038063Y0006794D01*
X0037868Y0006653D01*
X0037668Y0006516D01*
X0037466Y0006384D01*
X0037260Y0006257D01*
X0037052Y0006136D01*
X0036840Y0006019D01*
X0036626Y0005908D01*
X0036408Y0005802D01*
X0036189Y0005701D01*
X0035967Y0005606D01*
X0035742Y0005517D01*
X0035516Y0005432D01*
X0035288Y0005354D01*
X0035057Y0005281D01*
X0034825Y0005214D01*
X0034592Y0005152D01*
X0034357Y0005096D01*
X0034120Y0005046D01*
X0033883Y0005002D01*
X0033644Y0004964D01*
X0033405Y0004931D01*
X0033165Y0004904D01*
X0032924Y0004884D01*
X0032683Y0004869D01*
X0032442Y0004860D01*
X0032200Y0004857D01*
X0031958Y0004860D01*
X0031717Y0004869D01*
X0031476Y0004884D01*
X0031235Y0004904D01*
X0030995Y0004931D01*
X0030756Y0004964D01*
X0030517Y0005002D01*
X0030280Y0005046D01*
X0030043Y0005096D01*
X0029808Y0005152D01*
X0029575Y0005214D01*
X0029343Y0005281D01*
X0029112Y0005354D01*
X0028884Y0005432D01*
X0028658Y0005517D01*
X0028433Y0005606D01*
X0028211Y0005701D01*
X0027992Y0005802D01*
X0027774Y0005908D01*
X0027560Y0006019D01*
X0027348Y0006136D01*
X0027140Y0006257D01*
X0026934Y0006384D01*
X0026732Y0006516D01*
X0026532Y0006653D01*
X0026337Y0006794D01*
X0026144Y0006940D01*
X0025956Y0007091D01*
X0025771Y0007247D01*
X0025590Y0007407D01*
X0025413Y0007571D01*
X0025240Y0007740D01*
X0025071Y0007913D01*
X0024907Y0008090D01*
X0024747Y0008271D01*
X0024591Y0008456D01*
X0024440Y0008644D01*
X0024294Y0008837D01*
X0024153Y0009032D01*
X0024016Y0009232D01*
X0023884Y0009434D01*
X0023757Y0009640D01*
X0023636Y0009848D01*
X0023519Y0010060D01*
X0023408Y0010274D01*
X0023302Y0010492D01*
X0023201Y0010711D01*
X0023106Y0010933D01*
X0023017Y0011158D01*
X0022932Y0011384D01*
X0022854Y0011612D01*
X0022781Y0011843D01*
X0022714Y0012075D01*
X0022652Y0012308D01*
X0022596Y0012543D01*
X0022546Y0012780D01*
X0022502Y0013017D01*
X0022464Y0013256D01*
X0022431Y0013495D01*
X0022404Y0013735D01*
X0022384Y0013976D01*
X0022369Y0014217D01*
X0022360Y0014458D01*
X0022357Y0014700D01*
X0097200Y0030700D02*
X0097200Y0038200D01*
X0097326Y0038202D01*
X0097451Y0038208D01*
X0097576Y0038218D01*
X0097701Y0038232D01*
X0097826Y0038249D01*
X0097950Y0038271D01*
X0098073Y0038296D01*
X0098195Y0038326D01*
X0098316Y0038359D01*
X0098436Y0038396D01*
X0098555Y0038436D01*
X0098672Y0038481D01*
X0098789Y0038529D01*
X0098903Y0038581D01*
X0099016Y0038636D01*
X0099127Y0038695D01*
X0099236Y0038757D01*
X0099343Y0038823D01*
X0099448Y0038892D01*
X0099551Y0038964D01*
X0099652Y0039039D01*
X0099750Y0039118D01*
X0099845Y0039200D01*
X0099938Y0039284D01*
X0100028Y0039372D01*
X0100116Y0039462D01*
X0100200Y0039555D01*
X0100282Y0039650D01*
X0100361Y0039748D01*
X0100436Y0039849D01*
X0100508Y0039952D01*
X0100577Y0040057D01*
X0100643Y0040164D01*
X0100705Y0040273D01*
X0100764Y0040384D01*
X0100819Y0040497D01*
X0100871Y0040611D01*
X0100919Y0040728D01*
X0100964Y0040845D01*
X0101004Y0040964D01*
X0101041Y0041084D01*
X0101074Y0041205D01*
X0101104Y0041327D01*
X0101129Y0041450D01*
X0101151Y0041574D01*
X0101168Y0041699D01*
X0101182Y0041824D01*
X0101192Y0041949D01*
X0101198Y0042074D01*
X0101200Y0042200D01*
X0101198Y0042326D01*
X0101192Y0042451D01*
X0101182Y0042576D01*
X0101168Y0042701D01*
X0101151Y0042826D01*
X0101129Y0042950D01*
X0101104Y0043073D01*
X0101074Y0043195D01*
X0101041Y0043316D01*
X0101004Y0043436D01*
X0100964Y0043555D01*
X0100919Y0043672D01*
X0100871Y0043789D01*
X0100819Y0043903D01*
X0100764Y0044016D01*
X0100705Y0044127D01*
X0100643Y0044236D01*
X0100577Y0044343D01*
X0100508Y0044448D01*
X0100436Y0044551D01*
X0100361Y0044652D01*
X0100282Y0044750D01*
X0100200Y0044845D01*
X0100116Y0044938D01*
X0100028Y0045028D01*
X0099938Y0045116D01*
X0099845Y0045200D01*
X0099750Y0045282D01*
X0099652Y0045361D01*
X0099551Y0045436D01*
X0099448Y0045508D01*
X0099343Y0045577D01*
X0099236Y0045643D01*
X0099127Y0045705D01*
X0099016Y0045764D01*
X0098903Y0045819D01*
X0098789Y0045871D01*
X0098672Y0045919D01*
X0098555Y0045964D01*
X0098436Y0046004D01*
X0098316Y0046041D01*
X0098195Y0046074D01*
X0098073Y0046104D01*
X0097950Y0046129D01*
X0097826Y0046151D01*
X0097701Y0046168D01*
X0097576Y0046182D01*
X0097451Y0046192D01*
X0097326Y0046198D01*
X0097200Y0046200D01*
X0097200Y0053700D01*
X0167200Y0053700D01*
X0167200Y0030700D01*
X0097200Y0030700D01*
X0111900Y0017540D02*
X0111900Y0014604D01*
X0111900Y0016072D02*
X0107496Y0016072D01*
X0108964Y0014604D01*
X0108230Y0012936D02*
X0107496Y0012202D01*
X0107496Y0010000D01*
X0111900Y0010000D01*
X0111900Y0012202D01*
X0111166Y0012936D01*
X0108230Y0012936D01*
X0122496Y0012202D02*
X0122496Y0010000D01*
X0126900Y0010000D01*
X0126900Y0012202D01*
X0126166Y0012936D01*
X0123230Y0012936D01*
X0122496Y0012202D01*
X0123230Y0014604D02*
X0122496Y0015338D01*
X0122496Y0016806D01*
X0123230Y0017540D01*
X0123964Y0017540D01*
X0126900Y0014604D01*
X0126900Y0017540D01*
X0137496Y0016806D02*
X0137496Y0015338D01*
X0138230Y0014604D01*
X0139698Y0016072D02*
X0139698Y0016806D01*
X0140432Y0017540D01*
X0141166Y0017540D01*
X0141900Y0016806D01*
X0141900Y0015338D01*
X0141166Y0014604D01*
X0141166Y0012936D02*
X0138230Y0012936D01*
X0137496Y0012202D01*
X0137496Y0010000D01*
X0141900Y0010000D01*
X0141900Y0012202D01*
X0141166Y0012936D01*
X0139698Y0016806D02*
X0138964Y0017540D01*
X0138230Y0017540D01*
X0137496Y0016806D01*
X0137496Y0067500D02*
X0137496Y0069702D01*
X0138230Y0070436D01*
X0141166Y0070436D01*
X0141900Y0069702D01*
X0141900Y0067500D01*
X0137496Y0067500D01*
X0137496Y0072104D02*
X0139698Y0072104D01*
X0138964Y0073572D01*
X0138964Y0074306D01*
X0139698Y0075040D01*
X0141166Y0075040D01*
X0141900Y0074306D01*
X0141900Y0072838D01*
X0141166Y0072104D01*
X0137496Y0072104D02*
X0137496Y0075040D01*
X0126900Y0074306D02*
X0126900Y0072838D01*
X0126166Y0072104D01*
X0124698Y0072104D01*
X0124698Y0074306D01*
X0125432Y0075040D01*
X0126166Y0075040D01*
X0126900Y0074306D01*
X0124698Y0072104D02*
X0123230Y0073572D01*
X0122496Y0075040D01*
X0123230Y0070436D02*
X0122496Y0069702D01*
X0122496Y0067500D01*
X0126900Y0067500D01*
X0126900Y0069702D01*
X0126166Y0070436D01*
X0123230Y0070436D01*
X0152496Y0069702D02*
X0152496Y0067500D01*
X0156900Y0067500D01*
X0156900Y0069702D01*
X0156166Y0070436D01*
X0153230Y0070436D01*
X0152496Y0069702D01*
X0154698Y0072104D02*
X0154698Y0075040D01*
X0152496Y0074306D02*
X0154698Y0072104D01*
X0156900Y0074306D02*
X0152496Y0074306D01*
D14*
X0152728Y0076200D02*
X0151016Y0077911D01*
X0148540Y0078937D01*
X0145860Y0078937D01*
X0143384Y0077911D01*
X0141489Y0076016D01*
X0140463Y0073540D01*
X0140463Y0070860D01*
X0141358Y0068699D01*
X0138937Y0071120D01*
X0138937Y0073540D01*
X0137911Y0076016D01*
X0136016Y0077911D01*
X0133540Y0078937D01*
X0130860Y0078937D01*
X0128384Y0077911D01*
X0126489Y0076016D01*
X0125772Y0074285D01*
X0124466Y0075591D01*
X0122996Y0076200D01*
X0122728Y0076200D01*
X0121016Y0077911D01*
X0118540Y0078937D01*
X0115860Y0078937D01*
X0113384Y0077911D01*
X0111489Y0076016D01*
X0110463Y0073540D01*
X0110463Y0070860D01*
X0111489Y0068384D01*
X0113384Y0066489D01*
X0115860Y0065463D01*
X0118540Y0065463D01*
X0121016Y0066489D01*
X0121635Y0067108D01*
X0124444Y0064299D01*
X0123234Y0064800D01*
X0121166Y0064800D01*
X0119254Y0064008D01*
X0117792Y0062546D01*
X0117234Y0061200D01*
X0117166Y0061200D01*
X0116608Y0062546D01*
X0115146Y0064008D01*
X0113234Y0064800D01*
X0111166Y0064800D01*
X0109254Y0064008D01*
X0107792Y0062546D01*
X0107200Y0061117D01*
X0106608Y0062546D01*
X0106200Y0062954D01*
X0106200Y0067996D01*
X0105591Y0069466D01*
X0095591Y0079466D01*
X0094466Y0080591D01*
X0092996Y0081200D01*
X0092954Y0081200D01*
X0092546Y0081608D01*
X0090634Y0082400D01*
X0087657Y0082400D01*
X0085696Y0084361D01*
X0168101Y0084361D01*
X0168101Y0005000D01*
X0036172Y0005000D01*
X0036198Y0005019D01*
X0036881Y0005702D01*
X0037449Y0006484D01*
X0037887Y0007344D01*
X0038186Y0008263D01*
X0038337Y0009217D01*
X0038337Y0009700D01*
X0038337Y0010183D01*
X0038186Y0011137D01*
X0037887Y0012056D01*
X0037449Y0012916D01*
X0037248Y0013193D01*
X0037723Y0013389D01*
X0038511Y0014177D01*
X0038937Y0015206D01*
X0038937Y0024194D01*
X0038511Y0025223D01*
X0037723Y0026011D01*
X0036694Y0026437D01*
X0036200Y0026437D01*
X0036200Y0027996D01*
X0035591Y0029466D01*
X0033091Y0031966D01*
X0031966Y0033091D01*
X0031703Y0033200D01*
X0039246Y0033200D01*
X0040716Y0033809D01*
X0044870Y0037963D01*
X0045780Y0037963D01*
X0049934Y0033809D01*
X0051404Y0033200D01*
X0051446Y0033200D01*
X0051854Y0032792D01*
X0053200Y0032234D01*
X0053200Y0032166D01*
X0051854Y0031608D01*
X0050392Y0030146D01*
X0049600Y0028234D01*
X0049600Y0026166D01*
X0050392Y0024254D01*
X0051854Y0022792D01*
X0053766Y0022000D01*
X0060634Y0022000D01*
X0062546Y0022792D01*
X0064008Y0024254D01*
X0064800Y0026166D01*
X0064800Y0028234D01*
X0064008Y0030146D01*
X0062546Y0031608D01*
X0061200Y0032166D01*
X0061200Y0032234D01*
X0062546Y0032792D01*
X0064008Y0034254D01*
X0064149Y0034594D01*
X0074934Y0023809D01*
X0076404Y0023200D01*
X0081446Y0023200D01*
X0081854Y0022792D01*
X0083200Y0022234D01*
X0083200Y0022166D01*
X0081854Y0021608D01*
X0080392Y0020146D01*
X0079600Y0018234D01*
X0079600Y0016166D01*
X0080392Y0014254D01*
X0081854Y0012792D01*
X0083766Y0012000D01*
X0090634Y0012000D01*
X0092546Y0012792D01*
X0094008Y0014254D01*
X0094800Y0016166D01*
X0094800Y0018234D01*
X0094008Y0020146D01*
X0092546Y0021608D01*
X0091200Y0022166D01*
X0091200Y0022234D01*
X0092546Y0022792D01*
X0094008Y0024254D01*
X0094800Y0026166D01*
X0094800Y0028234D01*
X0094008Y0030146D01*
X0092546Y0031608D01*
X0091117Y0032200D01*
X0092546Y0032792D01*
X0092954Y0033200D01*
X0098446Y0033200D01*
X0097792Y0032546D01*
X0097000Y0030634D01*
X0097000Y0023766D01*
X0097792Y0021854D01*
X0098200Y0021446D01*
X0098200Y0020228D01*
X0096489Y0018516D01*
X0095463Y0016040D01*
X0095463Y0013360D01*
X0096489Y0010884D01*
X0098384Y0008989D01*
X0100860Y0007963D01*
X0103540Y0007963D01*
X0106016Y0008989D01*
X0107911Y0010884D01*
X0108937Y0013360D01*
X0108937Y0016040D01*
X0107911Y0018516D01*
X0106200Y0020228D01*
X0106200Y0021446D01*
X0106608Y0021854D01*
X0107200Y0023283D01*
X0107792Y0021854D01*
X0109254Y0020392D01*
X0111166Y0019600D01*
X0112572Y0019600D01*
X0111489Y0018516D01*
X0110463Y0016040D01*
X0110463Y0013360D01*
X0111489Y0010884D01*
X0113384Y0008989D01*
X0115860Y0007963D01*
X0118540Y0007963D01*
X0121016Y0008989D01*
X0122911Y0010884D01*
X0123937Y0013360D01*
X0123937Y0016040D01*
X0122911Y0018516D01*
X0121828Y0019600D01*
X0123234Y0019600D01*
X0125146Y0020392D01*
X0126608Y0021854D01*
X0127200Y0023283D01*
X0127792Y0021854D01*
X0128200Y0021446D01*
X0128200Y0020228D01*
X0126489Y0018516D01*
X0125463Y0016040D01*
X0125463Y0013360D01*
X0126489Y0010884D01*
X0128384Y0008989D01*
X0130860Y0007963D01*
X0133540Y0007963D01*
X0136016Y0008989D01*
X0137911Y0010884D01*
X0138937Y0013360D01*
X0138937Y0016040D01*
X0137911Y0018516D01*
X0136200Y0020228D01*
X0136200Y0021446D01*
X0136608Y0021854D01*
X0137200Y0023283D01*
X0137792Y0021854D01*
X0139254Y0020392D01*
X0141166Y0019600D01*
X0143234Y0019600D01*
X0145146Y0020392D01*
X0146608Y0021854D01*
X0147166Y0023200D01*
X0147234Y0023200D01*
X0147792Y0021854D01*
X0149254Y0020392D01*
X0151166Y0019600D01*
X0153234Y0019600D01*
X0155146Y0020392D01*
X0156608Y0021854D01*
X0157400Y0023766D01*
X0157400Y0030634D01*
X0156608Y0032546D01*
X0155146Y0034008D01*
X0153234Y0034800D01*
X0151166Y0034800D01*
X0149254Y0034008D01*
X0147792Y0032546D01*
X0147234Y0031200D01*
X0147166Y0031200D01*
X0146608Y0032546D01*
X0146200Y0032954D01*
X0146200Y0032996D01*
X0145591Y0034466D01*
X0144466Y0035591D01*
X0144466Y0035591D01*
X0139466Y0040591D01*
X0137996Y0041200D01*
X0092954Y0041200D01*
X0092546Y0041608D01*
X0091117Y0042200D01*
X0092546Y0042792D01*
X0092954Y0043200D01*
X0107996Y0043200D01*
X0109466Y0043809D01*
X0114466Y0048809D01*
X0115591Y0049934D01*
X0116200Y0051404D01*
X0116200Y0051446D01*
X0116608Y0051854D01*
X0117166Y0053200D01*
X0117234Y0053200D01*
X0117792Y0051854D01*
X0119254Y0050392D01*
X0121166Y0049600D01*
X0123234Y0049600D01*
X0125146Y0050392D01*
X0126608Y0051854D01*
X0127200Y0053283D01*
X0127792Y0051854D01*
X0129254Y0050392D01*
X0131166Y0049600D01*
X0133234Y0049600D01*
X0135146Y0050392D01*
X0136608Y0051854D01*
X0137200Y0053283D01*
X0137792Y0051854D01*
X0139254Y0050392D01*
X0141166Y0049600D01*
X0143234Y0049600D01*
X0145146Y0050392D01*
X0146608Y0051854D01*
X0147166Y0053200D01*
X0147234Y0053200D01*
X0147792Y0051854D01*
X0149254Y0050392D01*
X0151166Y0049600D01*
X0153234Y0049600D01*
X0155146Y0050392D01*
X0156608Y0051854D01*
X0157200Y0053283D01*
X0157792Y0051854D01*
X0159254Y0050392D01*
X0161166Y0049600D01*
X0163234Y0049600D01*
X0165146Y0050392D01*
X0166608Y0051854D01*
X0167400Y0053766D01*
X0167400Y0060634D01*
X0166608Y0062546D01*
X0166200Y0062954D01*
X0166200Y0067996D01*
X0165591Y0069466D01*
X0164466Y0070591D01*
X0159466Y0075591D01*
X0157996Y0076200D01*
X0152728Y0076200D01*
X0152374Y0076554D02*
X0168101Y0076554D01*
X0168101Y0078952D02*
X0096104Y0078952D01*
X0092803Y0081351D02*
X0168101Y0081351D01*
X0168101Y0083749D02*
X0086307Y0083749D01*
X0080950Y0083450D02*
X0087200Y0077200D01*
X0092200Y0077200D01*
X0102200Y0067200D01*
X0102200Y0057200D01*
X0106767Y0062163D02*
X0107633Y0062163D01*
X0106200Y0064561D02*
X0110589Y0064561D01*
X0113811Y0064561D02*
X0120589Y0064561D01*
X0123811Y0064561D02*
X0124182Y0064561D01*
X0121783Y0066960D02*
X0121487Y0066960D01*
X0117633Y0062163D02*
X0116767Y0062163D01*
X0112913Y0066960D02*
X0106200Y0066960D01*
X0105636Y0069358D02*
X0111085Y0069358D01*
X0110463Y0071757D02*
X0103300Y0071757D01*
X0100902Y0074155D02*
X0110718Y0074155D01*
X0112026Y0076554D02*
X0098503Y0076554D01*
X0087200Y0067200D02*
X0087200Y0057200D01*
X0077200Y0047200D01*
X0077200Y0042200D01*
X0082200Y0037200D01*
X0087200Y0037200D01*
X0137200Y0037200D01*
X0142200Y0032200D01*
X0142200Y0027200D01*
X0152200Y0027200D01*
X0157400Y0026185D02*
X0157600Y0026185D01*
X0157600Y0027200D02*
X0157600Y0024438D01*
X0157713Y0023723D01*
X0157937Y0023034D01*
X0158266Y0022389D01*
X0158691Y0021803D01*
X0159203Y0021291D01*
X0159789Y0020866D01*
X0160434Y0020537D01*
X0161123Y0020313D01*
X0161838Y0020200D01*
X0162200Y0020200D01*
X0162562Y0020200D01*
X0163277Y0020313D01*
X0163966Y0020537D01*
X0164611Y0020866D01*
X0165197Y0021291D01*
X0165709Y0021803D01*
X0166134Y0022389D01*
X0166463Y0023034D01*
X0166687Y0023723D01*
X0166800Y0024438D01*
X0166800Y0027200D01*
X0166800Y0029962D01*
X0166687Y0030677D01*
X0166463Y0031366D01*
X0166134Y0032011D01*
X0165709Y0032597D01*
X0165197Y0033109D01*
X0164611Y0033534D01*
X0163966Y0033863D01*
X0163277Y0034087D01*
X0162562Y0034200D01*
X0162200Y0034200D01*
X0162200Y0027200D01*
X0166800Y0027200D01*
X0162200Y0027200D01*
X0162200Y0027200D01*
X0162200Y0027200D01*
X0162200Y0020200D01*
X0162200Y0027200D01*
X0162200Y0027200D01*
X0162200Y0027200D01*
X0157600Y0027200D01*
X0157600Y0029962D01*
X0157713Y0030677D01*
X0157937Y0031366D01*
X0158266Y0032011D01*
X0158691Y0032597D01*
X0159203Y0033109D01*
X0159789Y0033534D01*
X0160434Y0033863D01*
X0161123Y0034087D01*
X0161838Y0034200D01*
X0162200Y0034200D01*
X0162200Y0027200D01*
X0157600Y0027200D01*
X0157600Y0028584D02*
X0157400Y0028584D01*
X0157256Y0030982D02*
X0157812Y0030982D01*
X0159578Y0033381D02*
X0155773Y0033381D01*
X0162200Y0033381D02*
X0162200Y0033381D01*
X0164822Y0033381D02*
X0168101Y0033381D01*
X0168101Y0035779D02*
X0144278Y0035779D01*
X0141879Y0038178D02*
X0168101Y0038178D01*
X0168101Y0040576D02*
X0139481Y0040576D01*
X0146041Y0033381D02*
X0148627Y0033381D01*
X0162200Y0030982D02*
X0162200Y0030982D01*
X0166588Y0030982D02*
X0168101Y0030982D01*
X0168101Y0028584D02*
X0166800Y0028584D01*
X0166800Y0026185D02*
X0168101Y0026185D01*
X0168101Y0023787D02*
X0166697Y0023787D01*
X0162200Y0023787D02*
X0162200Y0023787D01*
X0162200Y0026185D02*
X0162200Y0026185D01*
X0162200Y0028584D02*
X0162200Y0028584D01*
X0157703Y0023787D02*
X0157400Y0023787D01*
X0156142Y0021388D02*
X0159107Y0021388D01*
X0162200Y0021388D02*
X0162200Y0021388D01*
X0165293Y0021388D02*
X0168101Y0021388D01*
X0168101Y0018990D02*
X0137438Y0018990D01*
X0138258Y0021388D02*
X0136200Y0021388D01*
X0138709Y0016591D02*
X0168101Y0016591D01*
X0168101Y0014193D02*
X0138937Y0014193D01*
X0138288Y0011794D02*
X0168101Y0011794D01*
X0168101Y0009396D02*
X0136423Y0009396D01*
X0127977Y0009396D02*
X0121423Y0009396D01*
X0123288Y0011794D02*
X0126112Y0011794D01*
X0125463Y0014193D02*
X0123937Y0014193D01*
X0123709Y0016591D02*
X0125691Y0016591D01*
X0126962Y0018990D02*
X0122438Y0018990D01*
X0126142Y0021388D02*
X0128200Y0021388D01*
X0132200Y0027200D02*
X0132200Y0014700D01*
X0117200Y0014700D02*
X0117200Y0027200D01*
X0122200Y0027200D01*
X0117200Y0027200D02*
X0112200Y0027200D01*
X0102200Y0027200D02*
X0102200Y0014700D01*
X0096112Y0011794D02*
X0037972Y0011794D01*
X0038517Y0014193D02*
X0051302Y0014193D01*
X0051291Y0014203D02*
X0051803Y0013691D01*
X0052389Y0013266D01*
X0053034Y0012937D01*
X0053723Y0012713D01*
X0054438Y0012600D01*
X0057200Y0012600D01*
X0059962Y0012600D01*
X0060677Y0012713D01*
X0061366Y0012937D01*
X0062011Y0013266D01*
X0062597Y0013691D01*
X0063109Y0014203D01*
X0063534Y0014789D01*
X0063863Y0015434D01*
X0064087Y0016123D01*
X0064200Y0016838D01*
X0064200Y0017200D01*
X0064200Y0017562D01*
X0064087Y0018277D01*
X0063863Y0018966D01*
X0063534Y0019611D01*
X0063109Y0020197D01*
X0062597Y0020709D01*
X0062011Y0021134D01*
X0061366Y0021463D01*
X0060677Y0021687D01*
X0059962Y0021800D01*
X0057200Y0021800D01*
X0057200Y0017200D01*
X0057200Y0017200D01*
X0064200Y0017200D01*
X0057200Y0017200D01*
X0057200Y0017200D01*
X0057200Y0012600D01*
X0057200Y0017200D01*
X0057200Y0017200D01*
X0057200Y0017200D01*
X0050200Y0017200D01*
X0050200Y0017562D01*
X0050313Y0018277D01*
X0050537Y0018966D01*
X0050866Y0019611D01*
X0051291Y0020197D01*
X0051803Y0020709D01*
X0052389Y0021134D01*
X0053034Y0021463D01*
X0053723Y0021687D01*
X0054438Y0021800D01*
X0057200Y0021800D01*
X0057200Y0017200D01*
X0050200Y0017200D01*
X0050200Y0016838D01*
X0050313Y0016123D01*
X0050537Y0015434D01*
X0050866Y0014789D01*
X0051291Y0014203D01*
X0050239Y0016591D02*
X0038937Y0016591D01*
X0038937Y0018990D02*
X0050549Y0018990D01*
X0052887Y0021388D02*
X0038937Y0021388D01*
X0038937Y0023787D02*
X0050859Y0023787D01*
X0049600Y0026185D02*
X0037302Y0026185D01*
X0035956Y0028584D02*
X0049745Y0028584D01*
X0051228Y0030982D02*
X0034075Y0030982D01*
X0032200Y0027200D02*
X0029700Y0029700D01*
X0024700Y0029700D01*
X0017200Y0029700D01*
X0012200Y0024700D01*
X0005463Y0023787D02*
X0005000Y0023787D01*
X0005463Y0023360D02*
X0006489Y0020884D01*
X0008384Y0018989D01*
X0010860Y0017963D01*
X0013540Y0017963D01*
X0016016Y0018989D01*
X0017911Y0020884D01*
X0018937Y0023360D01*
X0018937Y0025700D01*
X0019172Y0025700D01*
X0020884Y0023989D01*
X0023360Y0022963D01*
X0025463Y0022963D01*
X0025463Y0015206D01*
X0025889Y0014177D01*
X0026677Y0013389D01*
X0027152Y0013193D01*
X0026951Y0012916D01*
X0026513Y0012056D01*
X0026214Y0011137D01*
X0026063Y0010183D01*
X0026063Y0009700D01*
X0032200Y0009700D01*
X0038337Y0009700D01*
X0032200Y0009700D01*
X0032200Y0009700D01*
X0032200Y0009700D01*
X0026063Y0009700D01*
X0026063Y0009217D01*
X0026214Y0008263D01*
X0026513Y0007344D01*
X0026951Y0006484D01*
X0027519Y0005702D01*
X0028202Y0005019D01*
X0028228Y0005000D01*
X0018210Y0005000D01*
X0018337Y0005473D01*
X0018337Y0009700D01*
X0018337Y0013927D01*
X0018187Y0014486D01*
X0017897Y0014988D01*
X0017488Y0015397D01*
X0016986Y0015687D01*
X0016427Y0015837D01*
X0012200Y0015837D01*
X0012200Y0009700D01*
X0012200Y0009700D01*
X0018337Y0009700D01*
X0012200Y0009700D01*
X0012200Y0009700D01*
X0012200Y0009700D01*
X0006063Y0009700D01*
X0006063Y0013927D01*
X0006213Y0014486D01*
X0006503Y0014988D01*
X0006912Y0015397D01*
X0007414Y0015687D01*
X0007973Y0015837D01*
X0012200Y0015837D01*
X0012200Y0009700D01*
X0006063Y0009700D01*
X0006063Y0005473D01*
X0006190Y0005000D01*
X0005000Y0005000D01*
X0005000Y0084361D01*
X0033704Y0084361D01*
X0031309Y0081966D01*
X0030700Y0080496D01*
X0030700Y0080228D01*
X0029172Y0078700D01*
X0018937Y0078700D01*
X0018937Y0079194D01*
X0018511Y0080223D01*
X0017723Y0081011D01*
X0016694Y0081437D01*
X0007706Y0081437D01*
X0006677Y0081011D01*
X0005889Y0080223D01*
X0005463Y0079194D01*
X0005463Y0070206D01*
X0005889Y0069177D01*
X0006677Y0068389D01*
X0007706Y0067963D01*
X0014806Y0067963D01*
X0010724Y0063881D01*
X0008384Y0062911D01*
X0006489Y0061016D01*
X0005463Y0058540D01*
X0005463Y0055860D01*
X0006489Y0053384D01*
X0006519Y0053353D01*
X0005889Y0052723D01*
X0005463Y0051694D01*
X0005463Y0042706D01*
X0005889Y0041677D01*
X0006677Y0040889D01*
X0007706Y0040463D01*
X0008509Y0040463D01*
X0008384Y0040411D01*
X0006489Y0038516D01*
X0005463Y0036040D01*
X0005463Y0033360D01*
X0006489Y0030884D01*
X0007672Y0029700D01*
X0006489Y0028516D01*
X0005463Y0026040D01*
X0005463Y0023360D01*
X0005000Y0021388D02*
X0006280Y0021388D01*
X0005000Y0018990D02*
X0008383Y0018990D01*
X0005000Y0016591D02*
X0025463Y0016591D01*
X0025463Y0018990D02*
X0016017Y0018990D01*
X0018120Y0021388D02*
X0025463Y0021388D01*
X0021372Y0023787D02*
X0018937Y0023787D01*
X0024700Y0029700D02*
X0024700Y0032737D01*
X0032200Y0027200D02*
X0032200Y0019700D01*
X0032200Y0019621D02*
X0032200Y0018637D01*
X0025883Y0014193D02*
X0018266Y0014193D01*
X0018337Y0011794D02*
X0026428Y0011794D01*
X0026063Y0009396D02*
X0018337Y0009396D01*
X0018337Y0006997D02*
X0026689Y0006997D01*
X0032200Y0009779D02*
X0032200Y0010763D01*
X0038337Y0009396D02*
X0097977Y0009396D01*
X0095463Y0014193D02*
X0093946Y0014193D01*
X0094800Y0016591D02*
X0095691Y0016591D01*
X0094487Y0018990D02*
X0096962Y0018990D01*
X0098200Y0021388D02*
X0092766Y0021388D01*
X0093541Y0023787D02*
X0097000Y0023787D01*
X0097000Y0026185D02*
X0094800Y0026185D01*
X0094655Y0028584D02*
X0097000Y0028584D01*
X0097144Y0030982D02*
X0093172Y0030982D01*
X0087200Y0027200D02*
X0077200Y0027200D01*
X0057200Y0047200D01*
X0039700Y0059700D01*
X0024700Y0059700D01*
X0024700Y0056663D01*
X0018450Y0065950D02*
X0012200Y0059700D01*
X0012200Y0057200D01*
X0005970Y0059764D02*
X0005000Y0059764D01*
X0005000Y0057366D02*
X0005463Y0057366D01*
X0005833Y0054967D02*
X0005000Y0054967D01*
X0005000Y0052569D02*
X0005825Y0052569D01*
X0005463Y0050170D02*
X0005000Y0050170D01*
X0005000Y0047772D02*
X0005463Y0047772D01*
X0005463Y0045373D02*
X0005000Y0045373D01*
X0005000Y0042975D02*
X0005463Y0042975D01*
X0005000Y0040576D02*
X0007433Y0040576D01*
X0006348Y0038178D02*
X0005000Y0038178D01*
X0005000Y0035779D02*
X0005463Y0035779D01*
X0005463Y0033381D02*
X0005000Y0033381D01*
X0005000Y0030982D02*
X0006448Y0030982D01*
X0006556Y0028584D02*
X0005000Y0028584D01*
X0005000Y0026185D02*
X0005523Y0026185D01*
X0012200Y0034700D02*
X0014700Y0037200D01*
X0038450Y0037200D01*
X0044700Y0043450D01*
X0044700Y0044700D01*
X0052200Y0037200D01*
X0057200Y0037200D01*
X0057200Y0027200D01*
X0063172Y0030982D02*
X0067761Y0030982D01*
X0070160Y0028584D02*
X0064655Y0028584D01*
X0064800Y0026185D02*
X0072558Y0026185D01*
X0074988Y0023787D02*
X0063541Y0023787D01*
X0061513Y0021388D02*
X0081634Y0021388D01*
X0079913Y0018990D02*
X0063851Y0018990D01*
X0064161Y0016591D02*
X0079600Y0016591D01*
X0080454Y0014193D02*
X0063098Y0014193D01*
X0057200Y0014193D02*
X0057200Y0014193D01*
X0057200Y0016591D02*
X0057200Y0016591D01*
X0057200Y0018990D02*
X0057200Y0018990D01*
X0057200Y0021388D02*
X0057200Y0021388D01*
X0063135Y0033381D02*
X0065362Y0033381D01*
X0050968Y0033381D02*
X0039682Y0033381D01*
X0042686Y0035779D02*
X0047964Y0035779D01*
X0044700Y0044700D02*
X0044700Y0047737D01*
X0034700Y0047737D02*
X0034700Y0044700D01*
X0014700Y0044700D01*
X0012200Y0047200D01*
X0007635Y0062163D02*
X0005000Y0062163D01*
X0005000Y0064561D02*
X0011404Y0064561D01*
X0013803Y0066960D02*
X0005000Y0066960D01*
X0005000Y0069358D02*
X0005814Y0069358D01*
X0005463Y0071757D02*
X0005000Y0071757D01*
X0005000Y0074155D02*
X0005463Y0074155D01*
X0005463Y0076554D02*
X0005000Y0076554D01*
X0005000Y0078952D02*
X0005463Y0078952D01*
X0005000Y0081351D02*
X0007498Y0081351D01*
X0005000Y0083749D02*
X0033093Y0083749D01*
X0031054Y0081351D02*
X0016902Y0081351D01*
X0018937Y0078952D02*
X0029425Y0078952D01*
X0034700Y0079700D02*
X0038450Y0083450D01*
X0080950Y0083450D01*
X0057200Y0077200D02*
X0054700Y0074700D01*
X0044700Y0074700D01*
X0044700Y0071663D01*
X0034700Y0071663D02*
X0034700Y0074700D01*
X0034700Y0079700D01*
X0034700Y0074700D02*
X0012200Y0074700D01*
X0018450Y0065950D02*
X0042200Y0065950D01*
X0050950Y0057200D01*
X0057200Y0057200D01*
X0057200Y0067200D02*
X0087200Y0067200D01*
X0112200Y0057200D02*
X0122200Y0057200D01*
X0126904Y0052569D02*
X0127496Y0052569D01*
X0129789Y0050170D02*
X0124611Y0050170D01*
X0119789Y0050170D02*
X0115689Y0050170D01*
X0116904Y0052569D02*
X0117496Y0052569D01*
X0112200Y0052200D02*
X0112200Y0057200D01*
X0112200Y0052200D02*
X0107200Y0047200D01*
X0087200Y0047200D01*
X0092729Y0042975D02*
X0168101Y0042975D01*
X0168101Y0045373D02*
X0111030Y0045373D01*
X0113429Y0047772D02*
X0168101Y0047772D01*
X0168101Y0050170D02*
X0164611Y0050170D01*
X0166904Y0052569D02*
X0168101Y0052569D01*
X0168101Y0054967D02*
X0167400Y0054967D01*
X0162200Y0057200D02*
X0162200Y0067200D01*
X0157200Y0072200D01*
X0147200Y0072200D01*
X0141085Y0069358D02*
X0140699Y0069358D01*
X0140463Y0071757D02*
X0138937Y0071757D01*
X0138682Y0074155D02*
X0140718Y0074155D01*
X0142026Y0076554D02*
X0137374Y0076554D01*
X0132200Y0072200D02*
X0142200Y0062200D01*
X0142200Y0057200D01*
X0152200Y0057200D01*
X0156904Y0052569D02*
X0157496Y0052569D01*
X0159789Y0050170D02*
X0154611Y0050170D01*
X0149789Y0050170D02*
X0144611Y0050170D01*
X0146904Y0052569D02*
X0147496Y0052569D01*
X0139789Y0050170D02*
X0134611Y0050170D01*
X0136904Y0052569D02*
X0137496Y0052569D01*
X0132200Y0057200D02*
X0132200Y0062200D01*
X0122200Y0072200D01*
X0117200Y0072200D01*
X0122374Y0076554D02*
X0127026Y0076554D01*
X0160902Y0074155D02*
X0168101Y0074155D01*
X0168101Y0071757D02*
X0163300Y0071757D01*
X0165636Y0069358D02*
X0168101Y0069358D01*
X0168101Y0066960D02*
X0166200Y0066960D01*
X0166200Y0064561D02*
X0168101Y0064561D01*
X0168101Y0062163D02*
X0166767Y0062163D01*
X0167400Y0059764D02*
X0168101Y0059764D01*
X0168101Y0057366D02*
X0167400Y0057366D01*
X0148258Y0021388D02*
X0146142Y0021388D01*
X0168101Y0006997D02*
X0037710Y0006997D01*
X0012200Y0011794D02*
X0012200Y0011794D01*
X0012200Y0014193D02*
X0012200Y0014193D01*
X0006134Y0014193D02*
X0005000Y0014193D01*
X0005000Y0011794D02*
X0006063Y0011794D01*
X0006063Y0009396D02*
X0005000Y0009396D01*
X0005000Y0006997D02*
X0006063Y0006997D01*
X0087200Y0017200D02*
X0087200Y0027200D01*
X0106200Y0021388D02*
X0108258Y0021388D01*
X0107438Y0018990D02*
X0111962Y0018990D01*
X0110691Y0016591D02*
X0108709Y0016591D01*
X0108937Y0014193D02*
X0110463Y0014193D01*
X0111112Y0011794D02*
X0108288Y0011794D01*
X0106423Y0009396D02*
X0112977Y0009396D01*
X0057200Y0067200D02*
X0057200Y0077200D01*
D15*
X0044700Y0074700D03*
X0034700Y0074700D03*
X0024700Y0059700D03*
X0012200Y0057200D03*
X0034700Y0044700D03*
X0044700Y0044700D03*
X0024700Y0029700D03*
X0012200Y0024700D03*
X0012200Y0034700D03*
X0032200Y0009700D03*
X0102200Y0014700D03*
X0117200Y0014700D03*
X0132200Y0014700D03*
X0132200Y0072200D03*
X0117200Y0072200D03*
X0147200Y0072200D03*
D16*
X0027200Y0016322D02*
X0027200Y0014453D01*
X0027200Y0015388D02*
X0024398Y0015388D01*
X0025332Y0014453D01*
X0024865Y0013375D02*
X0024398Y0012908D01*
X0024398Y0011974D01*
X0024865Y0011507D01*
X0026733Y0011507D01*
X0027200Y0011974D01*
X0027200Y0012908D01*
X0026733Y0013375D01*
X0007000Y0012194D02*
X0007000Y0010793D01*
X0004198Y0010793D01*
X0004198Y0012194D01*
X0004665Y0012661D01*
X0006533Y0012661D01*
X0007000Y0012194D01*
X0007000Y0009715D02*
X0004198Y0009715D01*
X0004198Y0007847D02*
X0007000Y0009715D01*
X0007000Y0007847D02*
X0004198Y0007847D01*
X0004665Y0006768D02*
X0004198Y0006301D01*
X0004198Y0005367D01*
X0004665Y0004900D01*
X0006533Y0004900D01*
X0007000Y0005367D01*
X0007000Y0006301D01*
X0006533Y0006768D01*
X0005599Y0006768D01*
X0005599Y0005834D01*
X0005132Y0022400D02*
X0005599Y0022867D01*
X0005599Y0023801D01*
X0006066Y0024268D01*
X0006533Y0024268D01*
X0007000Y0023801D01*
X0007000Y0022867D01*
X0006533Y0022400D01*
X0005132Y0022400D02*
X0004665Y0022400D01*
X0004198Y0022867D01*
X0004198Y0023801D01*
X0004665Y0024268D01*
X0004198Y0025347D02*
X0007000Y0025347D01*
X0006066Y0026281D01*
X0007000Y0027215D01*
X0004198Y0027215D01*
X0004665Y0028293D02*
X0004198Y0028760D01*
X0004198Y0029694D01*
X0004665Y0030161D01*
X0005132Y0030161D01*
X0007000Y0028293D01*
X0007000Y0030161D01*
X0006533Y0034900D02*
X0007000Y0035367D01*
X0007000Y0036301D01*
X0006533Y0036768D01*
X0006066Y0036768D01*
X0005599Y0036301D01*
X0005599Y0035367D01*
X0005132Y0034900D01*
X0004665Y0034900D01*
X0004198Y0035367D01*
X0004198Y0036301D01*
X0004665Y0036768D01*
X0004198Y0037847D02*
X0007000Y0037847D01*
X0006066Y0038781D01*
X0007000Y0039715D01*
X0004198Y0039715D01*
X0005132Y0040793D02*
X0004198Y0041727D01*
X0007000Y0041727D01*
X0007000Y0040793D02*
X0007000Y0042661D01*
D17*
X0007200Y0046700D02*
X0007200Y0056700D01*
X0007198Y0056776D01*
X0007192Y0056852D01*
X0007183Y0056927D01*
X0007169Y0057002D01*
X0007152Y0057076D01*
X0007131Y0057149D01*
X0007107Y0057221D01*
X0007078Y0057292D01*
X0007047Y0057361D01*
X0007012Y0057428D01*
X0006973Y0057493D01*
X0006931Y0057557D01*
X0006886Y0057618D01*
X0006838Y0057677D01*
X0006787Y0057733D01*
X0006733Y0057787D01*
X0006677Y0057838D01*
X0006618Y0057886D01*
X0006557Y0057931D01*
X0006493Y0057973D01*
X0006428Y0058012D01*
X0006361Y0058047D01*
X0006292Y0058078D01*
X0006221Y0058107D01*
X0006149Y0058131D01*
X0006076Y0058152D01*
X0006002Y0058169D01*
X0005927Y0058183D01*
X0005852Y0058192D01*
X0005776Y0058198D01*
X0005700Y0058200D01*
X0005700Y0062200D01*
X0019200Y0062200D01*
X0019200Y0058200D01*
X0018700Y0058200D01*
X0018624Y0058198D01*
X0018548Y0058192D01*
X0018473Y0058183D01*
X0018398Y0058169D01*
X0018324Y0058152D01*
X0018251Y0058131D01*
X0018179Y0058107D01*
X0018108Y0058078D01*
X0018039Y0058047D01*
X0017972Y0058012D01*
X0017907Y0057973D01*
X0017843Y0057931D01*
X0017782Y0057886D01*
X0017723Y0057838D01*
X0017667Y0057787D01*
X0017613Y0057733D01*
X0017562Y0057677D01*
X0017514Y0057618D01*
X0017469Y0057557D01*
X0017427Y0057493D01*
X0017388Y0057428D01*
X0017353Y0057361D01*
X0017322Y0057292D01*
X0017293Y0057221D01*
X0017269Y0057149D01*
X0017248Y0057076D01*
X0017231Y0057002D01*
X0017217Y0056927D01*
X0017208Y0056852D01*
X0017202Y0056776D01*
X0017200Y0056700D01*
X0017200Y0046700D01*
X0017198Y0046560D01*
X0017192Y0046420D01*
X0017182Y0046280D01*
X0017169Y0046140D01*
X0017151Y0046001D01*
X0017129Y0045862D01*
X0017104Y0045725D01*
X0017075Y0045587D01*
X0017042Y0045451D01*
X0017005Y0045316D01*
X0016964Y0045182D01*
X0016919Y0045049D01*
X0016871Y0044917D01*
X0016819Y0044787D01*
X0016764Y0044658D01*
X0016705Y0044531D01*
X0016642Y0044405D01*
X0016576Y0044281D01*
X0016507Y0044160D01*
X0016434Y0044040D01*
X0016357Y0043922D01*
X0016278Y0043807D01*
X0016195Y0043693D01*
X0016109Y0043583D01*
X0016020Y0043474D01*
X0015928Y0043368D01*
X0015833Y0043265D01*
X0015736Y0043164D01*
X0015635Y0043067D01*
X0015532Y0042972D01*
X0015426Y0042880D01*
X0015317Y0042791D01*
X0015207Y0042705D01*
X0015093Y0042622D01*
X0014978Y0042543D01*
X0014860Y0042466D01*
X0014740Y0042393D01*
X0014619Y0042324D01*
X0014495Y0042258D01*
X0014369Y0042195D01*
X0014242Y0042136D01*
X0014113Y0042081D01*
X0013983Y0042029D01*
X0013851Y0041981D01*
X0013718Y0041936D01*
X0013584Y0041895D01*
X0013449Y0041858D01*
X0013313Y0041825D01*
X0013175Y0041796D01*
X0013038Y0041771D01*
X0012899Y0041749D01*
X0012760Y0041731D01*
X0012620Y0041718D01*
X0012480Y0041708D01*
X0012340Y0041702D01*
X0012200Y0041700D01*
X0012060Y0041702D01*
X0011920Y0041708D01*
X0011780Y0041718D01*
X0011640Y0041731D01*
X0011501Y0041749D01*
X0011362Y0041771D01*
X0011225Y0041796D01*
X0011087Y0041825D01*
X0010951Y0041858D01*
X0010816Y0041895D01*
X0010682Y0041936D01*
X0010549Y0041981D01*
X0010417Y0042029D01*
X0010287Y0042081D01*
X0010158Y0042136D01*
X0010031Y0042195D01*
X0009905Y0042258D01*
X0009781Y0042324D01*
X0009660Y0042393D01*
X0009540Y0042466D01*
X0009422Y0042543D01*
X0009307Y0042622D01*
X0009193Y0042705D01*
X0009083Y0042791D01*
X0008974Y0042880D01*
X0008868Y0042972D01*
X0008765Y0043067D01*
X0008664Y0043164D01*
X0008567Y0043265D01*
X0008472Y0043368D01*
X0008380Y0043474D01*
X0008291Y0043583D01*
X0008205Y0043693D01*
X0008122Y0043807D01*
X0008043Y0043922D01*
X0007966Y0044040D01*
X0007893Y0044160D01*
X0007824Y0044281D01*
X0007758Y0044405D01*
X0007695Y0044531D01*
X0007636Y0044658D01*
X0007581Y0044787D01*
X0007529Y0044917D01*
X0007481Y0045049D01*
X0007436Y0045182D01*
X0007395Y0045316D01*
X0007358Y0045451D01*
X0007325Y0045587D01*
X0007296Y0045725D01*
X0007271Y0045862D01*
X0007249Y0046001D01*
X0007231Y0046140D01*
X0007218Y0046280D01*
X0007208Y0046420D01*
X0007202Y0046560D01*
X0007200Y0046700D01*
X0067950Y0033454D02*
X0069451Y0033454D01*
X0068701Y0033454D02*
X0068701Y0028950D01*
X0069451Y0028950D02*
X0067950Y0028950D01*
X0071019Y0029701D02*
X0071770Y0028950D01*
X0073271Y0028950D01*
X0074022Y0029701D01*
X0075623Y0028950D02*
X0078626Y0028950D01*
X0077124Y0028950D02*
X0077124Y0033454D01*
X0075623Y0031953D01*
X0074022Y0032703D02*
X0073271Y0033454D01*
X0071770Y0033454D01*
X0071019Y0032703D01*
X0071019Y0029701D01*
X0070697Y0046326D02*
X0073699Y0046326D01*
X0074450Y0047077D01*
X0074450Y0048578D01*
X0073699Y0049329D01*
X0074450Y0050930D02*
X0074450Y0053182D01*
X0073699Y0053933D01*
X0070697Y0053933D01*
X0069946Y0053182D01*
X0069946Y0050930D01*
X0074450Y0050930D01*
X0070697Y0049329D02*
X0069946Y0048578D01*
X0069946Y0047077D01*
X0070697Y0046326D01*
X0072198Y0055534D02*
X0072198Y0058537D01*
X0069946Y0057786D02*
X0072198Y0055534D01*
X0074450Y0057786D02*
X0069946Y0057786D01*
X0070697Y0060138D02*
X0069946Y0060889D01*
X0069946Y0062390D01*
X0070697Y0063141D01*
X0073699Y0060138D01*
X0074450Y0060889D01*
X0074450Y0062390D01*
X0073699Y0063141D01*
X0070697Y0063141D01*
X0070697Y0064742D02*
X0071447Y0064742D01*
X0072198Y0065493D01*
X0072198Y0067745D01*
X0070697Y0067745D02*
X0069946Y0066994D01*
X0069946Y0065493D01*
X0070697Y0064742D01*
X0073699Y0064742D02*
X0074450Y0065493D01*
X0074450Y0066994D01*
X0073699Y0067745D01*
X0070697Y0067745D01*
X0070697Y0069346D02*
X0069946Y0070097D01*
X0069946Y0071598D01*
X0070697Y0072349D01*
X0071447Y0072349D01*
X0072198Y0071598D01*
X0072949Y0072349D01*
X0073699Y0072349D01*
X0074450Y0071598D01*
X0074450Y0070097D01*
X0073699Y0069346D01*
X0072198Y0070847D02*
X0072198Y0071598D01*
X0073699Y0060138D02*
X0070697Y0060138D01*
X0105950Y0043703D02*
X0105950Y0040701D01*
X0106701Y0039950D01*
X0108202Y0039950D01*
X0108953Y0040701D01*
X0110554Y0039950D02*
X0112806Y0039950D01*
X0113556Y0040701D01*
X0113556Y0043703D01*
X0112806Y0044454D01*
X0110554Y0044454D01*
X0110554Y0039950D01*
X0115158Y0042202D02*
X0118160Y0042202D01*
X0119762Y0043703D02*
X0120512Y0044454D01*
X0122014Y0044454D01*
X0122764Y0043703D01*
X0119762Y0040701D01*
X0120512Y0039950D01*
X0122014Y0039950D01*
X0122764Y0040701D01*
X0122764Y0043703D01*
X0124366Y0042202D02*
X0126618Y0042202D01*
X0127368Y0041451D01*
X0127368Y0040701D01*
X0126618Y0039950D01*
X0125116Y0039950D01*
X0124366Y0040701D01*
X0124366Y0042202D01*
X0125867Y0043703D01*
X0127368Y0044454D01*
X0128970Y0042202D02*
X0130471Y0043703D01*
X0131972Y0044454D01*
X0131222Y0042202D02*
X0128970Y0042202D01*
X0128970Y0040701D01*
X0129720Y0039950D01*
X0131222Y0039950D01*
X0131972Y0040701D01*
X0131972Y0041451D01*
X0131222Y0042202D01*
X0119762Y0040701D02*
X0119762Y0043703D01*
X0117410Y0044454D02*
X0115158Y0042202D01*
X0117410Y0039950D02*
X0117410Y0044454D01*
X0108953Y0043703D02*
X0108202Y0044454D01*
X0106701Y0044454D01*
X0105950Y0043703D01*
X0145450Y0043454D02*
X0146951Y0043454D01*
X0146201Y0043454D02*
X0146201Y0038950D01*
X0146951Y0038950D02*
X0145450Y0038950D01*
X0148519Y0039701D02*
X0149270Y0038950D01*
X0150771Y0038950D01*
X0151522Y0039701D01*
X0153123Y0038950D02*
X0156126Y0041953D01*
X0156126Y0042703D01*
X0155375Y0043454D01*
X0153874Y0043454D01*
X0153123Y0042703D01*
X0151522Y0042703D02*
X0150771Y0043454D01*
X0149270Y0043454D01*
X0148519Y0042703D01*
X0148519Y0039701D01*
X0153123Y0038950D02*
X0156126Y0038950D01*
D18*
X0152200Y0029600D02*
X0152200Y0024800D01*
X0142200Y0024800D02*
X0142200Y0029600D01*
X0132200Y0029600D02*
X0132200Y0024800D01*
X0122200Y0024800D02*
X0122200Y0029600D01*
X0112200Y0029600D02*
X0112200Y0024800D01*
X0102200Y0024800D02*
X0102200Y0029600D01*
X0089600Y0027200D02*
X0084800Y0027200D01*
X0084800Y0017200D02*
X0089600Y0017200D01*
X0059600Y0017200D02*
X0054800Y0017200D01*
X0054800Y0027200D02*
X0059600Y0027200D01*
X0059600Y0037200D02*
X0054800Y0037200D01*
X0054800Y0047200D02*
X0059600Y0047200D01*
X0059600Y0057200D02*
X0054800Y0057200D01*
X0054800Y0067200D02*
X0059600Y0067200D01*
X0059600Y0077200D02*
X0054800Y0077200D01*
X0084800Y0077200D02*
X0089600Y0077200D01*
X0089600Y0067200D02*
X0084800Y0067200D01*
X0102200Y0059600D02*
X0102200Y0054800D01*
X0112200Y0054800D02*
X0112200Y0059600D01*
X0122200Y0059600D02*
X0122200Y0054800D01*
X0132200Y0054800D02*
X0132200Y0059600D01*
X0142200Y0059600D02*
X0142200Y0054800D01*
X0152200Y0054800D02*
X0152200Y0059600D01*
X0162200Y0059600D02*
X0162200Y0054800D01*
X0162200Y0029600D02*
X0162200Y0024800D01*
X0089600Y0037200D02*
X0084800Y0037200D01*
X0084800Y0047200D02*
X0089600Y0047200D01*
X0089600Y0057200D02*
X0084800Y0057200D01*
M02*
